<?xml version="1.0" encoding="UTF-8"?>
<svg viewBox="0 0 640 480" xmlns="http://www.w3.org/2000/svg" xmlns:xlink="http://www.w3.org/1999/xlink">
 <defs>
  <filter id="ab" x="-.088588" y="-.43556" width="1.1772" height="1.8711">
   <feGaussianBlur stdDeviation="2.811032"/>
  </filter>
  <filter id="z" x="-.039898" y="-.43556" width="1.0798" height="1.8711">
   <feGaussianBlur stdDeviation="2.811032"/>
  </filter>
  <filter id="ac" x="-.041481" y="-.47515" width="1.083" height="1.9503">
   <feGaussianBlur stdDeviation="2.811032"/>
  </filter>
  <filter id="af" x="-.046254" y="-.34844" width="1.0925" height="1.6969">
   <feGaussianBlur stdDeviation="2.811032"/>
  </filter>
  <filter id="ag" x="-.07801" y="-.40205" width="1.156" height="1.8041">
   <feGaussianBlur stdDeviation="2.811032"/>
  </filter>
  <filter id="ad" x="-.056812" y="-.52267" width="1.1136" height="2.0453">
   <feGaussianBlur stdDeviation="2.811032"/>
  </filter>
  <filter id="aa" x="-.055603" y="-.43556" width="1.1112" height="1.8711">
   <feGaussianBlur stdDeviation="2.811032"/>
  </filter>
  <filter id="ae" x="-.090115" y="-.58074" width="1.1802" height="2.1615">
   <feGaussianBlur stdDeviation="2.811032"/>
  </filter>
  <filter id="y" x="-.049308" y="-.47515" width="1.0986" height="1.9503">
   <feGaussianBlur stdDeviation="2.811032"/>
  </filter>
  <filter id="x">
   <feGaussianBlur stdDeviation="3.864117"/>
  </filter>
  <linearGradient id="aq" x1="1.3435" x2="-.099236" y1="-5.8333" y2="-4.5" xlink:href="#a"/>
  <linearGradient id="al" x1="1.9828" x2="-1.2759" y1="9.5556" y2="11.333" xlink:href="#a"/>
  <linearGradient id="am" x1="1.4348" x2="-.61956" y1="4.6" y2="6.2" xlink:href="#a"/>
  <linearGradient id="ao" x1="2.7797" x2="-.42373" y1="-.33333" y2="1" xlink:href="#a"/>
  <linearGradient id="an" x1="1.4444" x2="-.055555" y1="2.0909" y2="3.5455" xlink:href="#a"/>
  <linearGradient id="ap" x1="1.8511" x2="-.15957" y1="-3.75" y2="-2.4167" xlink:href="#a"/>
  <linearGradient id="a">
   <stop stop-color="#216778" offset="0"/>
   <stop stop-color="#216778" stop-opacity="0" offset="1"/>
  </linearGradient>
  <linearGradient id="b">
   <stop stop-color="#045" offset="0"/>
   <stop stop-color="#045" stop-opacity="0" offset="1"/>
  </linearGradient>
  <linearGradient id="ak" x1="1.4867" x2="-.18584" y1="7.2667" y2="8.3333" xlink:href="#a"/>
  <linearGradient id="ah" x1=".075832" x2=".74182" y1=".39386" y2=".42737" xlink:href="#b"/>
  <linearGradient id="ar" x1="1.4151" x2="-.36792" y1="-9.2727" y2="-7.8182" xlink:href="#a"/>
  <linearGradient id="aj" x1="2.3582" x2="-.46269" y1="10.538" y2="11.769" xlink:href="#a"/>
  <linearGradient id="ai" x1=".075831" x2=".74182" y1=".45445" y2=".48797" xlink:href="#b"/>
 </defs>
 <g stroke-width="0">
  <g stroke="#2a36d2" stroke-linecap="round" stroke-linejoin="round">
   <g fill="#006680">
    <rect x="281.39" y="46.298" width="86.482" height="16.78" rx=".14211" ry="1.3519" filter="url(#ag)"/>
    <rect transform="matrix(1 0 0 .68421 -3.8723 26.985)" x="268.48" y="82.44" width="145.86" height="19.362" rx=".14211" ry="1.3519" filter="url(#af)"/>
    <rect transform="matrix(1.2787 0 0 1 -101.6 0)" x="322.89" y="118.13" width="74.865" height="11.617" rx=".14211" ry="1.3519" filter="url(#ae)"/>
    <rect x="314.95" y="163.76" width="118.75" height="12.908" rx=".14211" ry="1.3519" filter="url(#ad)"/>
    <rect transform="matrix(1 0 0 .73333 0 51.5)" x="250.41" y="193.45" width="162.64" height="14.199" rx=".14211" ry="1.3519" filter="url(#ac)"/>
    <rect transform="matrix(1.1129 0 0 .5625 -29.605 93.749)" x="273.65" y="228.3" width="76.156" height="15.489" rx=".14211" ry="1.3519" filter="url(#ab)"/>
    <rect transform="matrix(.92784 0 0 1 18.816 0)" x="260.74" y="281.22" width="121.33" height="15.489" rx=".14211" ry="1.3519" filter="url(#aa)"/>
    <rect transform="matrix(1 0 0 .75 0 77.727)" x="258.16" y="316.07" width="169.09" height="15.489" rx=".14211" ry="1.3519" filter="url(#z)"/>
    <rect x="291.72" y="354.79" width="136.82" height="14.199" rx=".14211" ry="1.3519" filter="url(#y)"/>
   </g>
   <g fill="#37abc8">
    <rect x="285.26" y="41.135" width="86.482" height="16.78" rx=".14211" ry="1.3519"/>
    <rect x="268.48" y="79.858" width="145.86" height="13.247" rx=".14211" ry=".92498"/>
    <rect x="316.23" y="112.96" width="95.729" height="11.617" rx=".18172" ry="1.3519"/>
    <rect x="318.82" y="158.6" width="118.75" height="12.908" rx=".14211" ry="1.3519"/>
    <rect x="254.28" y="189.57" width="162.64" height="10.412" rx=".14211" ry=".99138"/>
    <rect x="279.25" y="219.26" width="84.754" height="8.7128" rx=".15816" ry=".76044"/>
    <rect x="264.33" y="276.06" width="112.58" height="15.489" rx=".13186" ry="1.3519"/>
    <rect x="262.03" y="310.91" width="169.09" height="11.617" rx=".14211" ry="1.0139"/>
    <rect x="295.59" y="349.63" width="136.82" height="14.199" rx=".14211" ry="1.3519"/>
   </g>
   <rect x="285.26" y="41.135" width="86.482" height="16.78" rx=".14211" ry="1.3519" fill="url(#aj)"/>
   <rect x="268.48" y="79.858" width="145.86" height="13.247" rx=".14211" ry=".92498" fill="url(#ak)"/>
   <rect x="316.23" y="112.96" width="95.729" height="11.617" rx=".18172" ry="1.3519" fill="url(#al)"/>
   <rect x="318.82" y="158.6" width="118.75" height="12.908" rx=".14211" ry="1.3519" fill="url(#am)"/>
   <rect x="254.28" y="189.57" width="162.64" height="10.412" rx=".14211" ry=".99138" fill="url(#an)"/>
   <rect x="279.25" y="219.26" width="84.754" height="8.7128" rx=".15816" ry=".76044" fill="url(#ao)"/>
   <rect x="264.33" y="276.06" width="112.58" height="15.489" rx=".13186" ry="1.3519" fill="url(#ap)"/>
   <rect x="262.03" y="310.91" width="169.09" height="11.617" rx=".14211" ry="1.0139" fill="url(#aq)"/>
   <rect x="295.59" y="349.63" width="136.82" height="14.199" rx=".14211" ry="1.3519" fill="url(#ar)"/>
  </g>
  <g fill-rule="evenodd" stroke="#000">
   <g fill="#00222b" filter="url(#x)">
    <path d="m259.45 454.18s187.49-60.021 182-116.17c-5.4858-56.149-154.68-80.627-180.71-134.24-19.79-40.76 138.82-9.9705 162.64-92.936 14.87-51.807-163.93-118.75-163.93-118.75l-5.1631 16.78s154.25 58.73 149.73 107.14c-4.5177 48.404-172.32 26.784-167.8 86.482 4.5177 59.699 202.24 92.23 182 145.86-16.52 43.766-166.2 80.383-162.64 82.61l3.8723 23.234z"/>
    <path d="m418.24 426.18s-187.49-60.021-182-116.17c5.4858-56.149 154.68-80.627 180.71-134.24 19.79-40.76-138.82-9.9705-162.64-92.936-14.87-51.807 163.93-118.75 163.93-118.75l5.1631 16.78s-154.25 58.73-149.73 107.14c4.5177 48.404 172.32 26.784 167.8 86.482-4.5177 59.699-202.24 92.23-182 145.86 16.52 43.766 166.2 80.383 162.64 82.61l-3.8723 23.234z"/>
   </g>
   <g fill="#2ca089">
    <path d="m264.61 451.6s187.49-60.021 182-116.17c-5.4858-56.149-154.68-80.627-180.71-134.24-19.79-40.76 138.82-9.9705 162.64-92.936 14.87-51.807-163.93-118.75-163.93-118.75l-5.1631 16.78s154.25 58.73 149.73 107.14c-4.5177 48.404-172.32 26.784-167.8 86.482 4.5177 59.699 202.24 92.23 182 145.86-16.52 43.766-166.2 80.383-162.64 82.61l3.8723 23.234z"/>
    <path d="m423.4 423.6s-187.49-60.021-182-116.17c5.4858-56.149 154.68-80.627 180.71-134.24 19.79-40.76-138.82-9.9705-162.64-92.936-14.87-51.807 163.93-118.75 163.93-118.75l5.1631 16.78s-154.25 58.73-149.73 107.14c4.5177 48.404 172.32 26.784 167.8 86.482-4.5177 59.699-202.24 92.23-182 145.86 16.52 43.766 166.2 80.383 162.64 82.61l-3.8723 23.234z"/>
   </g>
   <path d="m263.32 455.48s187.49-60.021 182-116.17c-5.4858-56.149-154.68-80.627-180.71-134.24-19.79-40.76 138.82-9.9705 162.64-92.936 14.87-51.807-163.93-118.75-163.93-118.75l-5.1631 16.78s154.25 58.73 149.73 107.14c-4.5177 48.404-172.32 26.784-167.8 86.482 4.5177 59.699 202.24 92.23 182 145.86-16.52 43.766-166.2 80.383-162.64 82.61l3.8723 23.234z" fill="url(#ah)"/>
   <path d="m422.11 427.48s-187.49-60.021-182-116.17c5.4858-56.149 154.68-80.627 180.71-134.24 19.79-40.76-138.82-9.9705-162.64-92.936-14.87-51.807 163.93-118.75 163.93-118.75l5.1631 16.78s-154.25 58.73-149.73 107.14c4.5177 48.404 172.32 26.784 167.8 86.482-4.5177 59.699-202.24 92.23-182 145.86 16.52 43.766 166.2 80.383 162.64 82.61l-3.8723 23.234z" fill="url(#ai)"/>
  </g>
 </g>
</svg>
